<?xml version="1.0" standalone="no"?><svg xmlns="http://www.w3.org/2000/svg" viewBox="0 0 1440 320"><path fill="#ffffff" fill-opacity="1" d="M0,96L21.8,101.3C43.6,107,87,117,131,138.7C174.5,160,218,192,262,208C305.5,224,349,224,393,224C436.4,224,480,224,524,208C567.3,192,611,160,655,165.3C698.2,171,742,213,785,234.7C829.1,256,873,256,916,245.3C960,235,1004,213,1047,176C1090.9,139,1135,85,1178,80C1221.8,75,1265,117,1309,144C1352.7,171,1396,181,1418,186.7L1440,192L1440,320L1418.2,320C1396.4,320,1353,320,1309,320C1265.5,320,1222,320,1178,320C1134.5,320,1091,320,1047,320C1003.6,320,960,320,916,320C872.7,320,829,320,785,320C741.8,320,698,320,655,320C610.9,320,567,320,524,320C480,320,436,320,393,320C349.1,320,305,320,262,320C218.2,320,175,320,131,320C87.3,320,44,320,22,320L0,320Z"></path></svg>